<?xml version="1.0" encoding="utf-8"?>
<!-- Generator: Adobe Illustrator 24.0.2, SVG Export Plug-In . SVG Version: 6.00 Build 0)  -->
<svg version="1.1" id="Layer_1" xmlns="http://www.w3.org/2000/svg" xmlns:xlink="http://www.w3.org/1999/xlink" x="0px" y="0px"
	 viewBox="0 0 1024 1024" style="enable-background:new 0 0 1024 1024;" xml:space="preserve">
<style type="text/css">
	.st0{fill:#4061DB;}
	.st1{fill:#F9FAFB;}
</style>
<path class="st0" d="M465.7,510c-4.8-4.3-10.3-8.1-15.3-12.2l-29.1-24.1c-20.8-17.5-40.7-36-59.4-55.7
	c-36.9-38.1-71.4-87.7-79.8-141.2c-3-18.9-1.8-38.7-1.7-57.8c-0.1-24.3-0.1-48.5,0.1-72.8c22.1-0.6,44.4-0.2,66.6-0.1l116.5,0.2
	l177.3-0.1c34.1,0,68.3-0.5,102.4,0.2l0.1,71c0,14.4,0.6,29-0.5,43.3c-6.6,91.3-81.5,162.5-146.9,218.3
	c-12.8,10.9-26.1,21-38.8,31.9c6.1,5.4,12.7,10.3,19,15.5c21.6,18,43.6,36,63.5,56c48.4,48.4,95.2,104.7,102.9,175.4
	c1.8,16.6,1.3,33.4,1.4,50.1l0,69.7c-20.7,0.7-41.6,0.4-62.3,0.4l-109.8,0.1l-291.3-0.1c-0.5-17.5-0.1-35.1-0.1-52.6
	c0-18.3-0.4-36.8,0.2-55.2c2.8-80.5,63.6-153.1,120.3-204.7c11.1-10.1,22.3-20.1,33.8-29.6C445,527.4,455.8,519.2,465.7,510z
	 M301.5,167.3l0.2,60.1c0.1,14-0.2,28.4,1.6,42.4c6.9,56.3,45,104.3,84,143.1c22.8,22.7,47,43.4,72.1,63.4
	c11.4,9.1,23.5,17.7,34.6,27.1c2,1.7,5.1,4.3,5.5,6.9c0.2,1.2-1.5,2.5-2.3,3.3c-6.5,6.4-14.7,11.7-21.8,17.4
	c-11.1,8.9-21.9,18.2-32.8,27.3c-63.9,53.8-135.7,124.7-139.8,213.6c-1.3,28.2-0.9,57.2-0.5,85.4l313-0.1c13.7,0,102.3,1,106.8-0.8
	l-0.1-56.1c0-14.3,0.4-28.7-1.3-42.9c-6.8-58.2-45.6-109.2-85.9-149.4c-21.2-21.1-43.2-40.6-66.3-59.6c-14-11.5-34.1-25.7-46-38.6
	c0.2-0.2,0.4-0.4,0.6-0.6c6.5-6.5,14.2-12.1,21.4-17.8c12-9.3,23.8-18.7,35.6-28.3c64.1-52.7,141.3-125.9,142-215.2
	c0.2-26.9-0.3-53.7,0.1-80.6L301.5,167.3z"/>
<path class="st1" d="M302.1,857.4c-0.3-28.2-0.8-57.2,0.5-85.4c4.2-88.9,76-159.8,139.8-213.6c10.9-9.1,21.7-18.4,32.8-27.3
	c7.2-5.7,15.3-11,21.8-17.4c0.8-0.8,2.5-2.1,2.3-3.3c-0.4-2.7-3.5-5.3-5.5-6.9c-11.2-9.4-23.2-18-34.6-27.1
	c-25.1-20.1-49.3-40.8-72.1-63.4c-38.9-38.8-77-86.8-84-143.1c-1.7-13.9-1.5-28.3-1.6-42.4l-0.2-60.1l420.5,0
	c-0.4,26.9,0.1,53.7-0.1,80.6c-0.7,89.3-77.9,162.4-142,215.2c-11.8,9.5-23.7,19-35.6,28.3c-7.2,5.7-14.9,11.3-21.4,17.8
	c-0.2,0.2-0.4,0.4-0.6,0.6c11.9,12.9,32,27.1,46,38.6c23.2,19,45.1,38.5,66.3,59.6c40.3,40.2,79.2,91.2,85.9,149.4
	c1.7,14.2,1.3,28.6,1.3,42.9l0.1,56.1c-4.5,1.8-93.1,0.8-106.8,0.8L302.1,857.4z M339.6,212.9c-0.2,21.8-0.9,43.8,3.6,65.3
	c11.5,54,60.5,110.4,98.2,148.8c13,13.3,27,25.6,41,37.9c9.3,8.2,19.5,18.1,30.5,24c61.9-51.4,145.4-128.1,165.6-208.8
	c4.9-22.3,4.1-43.6,3.6-66.1c-42.3,49.7-82.8,100.9-124.9,150.7l-28.1,33.5c-5.7,6.8-11.2,13.9-17.4,20.2
	c-20.6-23.4-40.2-47.5-60.1-71.3l-62.2-74.2C382.5,264.4,344.1,215.7,339.6,212.9z M510.8,632.2L398.3,764.6l-39.7,46.3
	c-6.5,7.7-13.5,15.4-19.4,23.6c59.2,0.5,118.5,0.6,177.7,0.3c56.5,0.3,113,0.2,169.5-0.1c-44.7-48.6-86.6-100-129.3-150.3
	c-13.8-16.3-27.2-33.3-41.6-49C514.1,633.7,513,632.7,510.8,632.2z"/>
<path class="st0" d="M512.8,488.8c-11-5.9-21.1-15.8-30.5-24c-14-12.2-27.9-24.6-41-37.9c-37.6-38.3-86.6-94.8-98.2-148.8
	c-4.6-21.5-3.8-43.4-3.6-65.3c4.5,2.8,42.9,51.5,49.8,59.8l62.2,74.2c19.9,23.9,39.6,48,60.1,71.3c6.2-6.3,11.7-13.4,17.4-20.2
	l28.1-33.5c42.1-49.9,82.6-101,124.9-150.7c0.5,22.6,1.3,43.9-3.6,66.1C658.3,360.7,574.7,437.4,512.8,488.8z"/>
<path class="st0" d="M339.2,834.5c5.8-8.2,12.8-15.9,19.4-23.6l39.7-46.3l112.5-132.4c2.2,0.5,3.2,1.5,4.7,3.1
	c14.4,15.7,27.8,32.8,41.6,49c42.8,50.3,84.7,101.7,129.3,150.3c-56.5,0.3-113,0.4-169.5,0.1C457.7,835.1,398.5,835,339.2,834.5z"/>
</svg>
