<svg id="Layer_1" data-name="Layer 1" xmlns="http://www.w3.org/2000/svg" viewBox="0 0 402.32 648.05"><defs><style>.cls-1{fill:#4865af;}</style></defs><title>huorglass</title><path class="cls-1" d="M1422.43.33c6,114.15-47.13,195.18-141.19,254.11,8.24,6.16,15.82,11.78,23.34,17.47,29.79,22.55,56.89,47.77,77.73,79.07,21.28,32,35.22,66.92,39,105.2,1.6,16.44-.13,33.19-.38,49.8,0,2.48-.24,5-.41,8.24,7.18,0,14.12.32,21-.09,5.63-.34,7.23,2,7.16,7.26-.17,11.49-.09,39.8-.05,53a6.91,6.91,0,0,1-6.91,6.94c-17.37,0-355.84.09-388.37.06a7,7,0,0,1-7-7c.05-11.11.19-26.1.18-34.44,0-6.17.16-12.34-.18-18.49s2.49-8.46,8.32-8.28c5.13.16,10.27,0,16.32,0,0-4,0-7.43,0-10.86-.21-27.67.27-55.27,7.82-82.2,13-46.58,39.34-85,74.2-117.61,16.86-15.76,35.55-29.57,53.42-44.26,1.53-1.25,3.12-2.43,5.9-4.6C1117.16,195.87,1067.15,113,1070.41-.24c-6.12,0-11.72-.22-17.3.07-5.22,0-5.56-2-5.56-8.71,0-15.89,0-31.2,0-47.64,0-8.13.5-10.11,6.67-10.11q164.88.18,329.78.07c18.15,0,36.31.14,54.46,0,7-.07,7.07,3.33,7.07,13.2,0,13.73.43,29.15.43,42.4,0,9.91-1.88,11.34-7.73,11.34ZM1082.55,513.77h5.76l143,0h171.46c3,0,6.33.57,6.3-4.1-.11-20.11,1.66-40.44-.71-60.28-5.07-42.39-23.6-79.42-50.55-112.28-23.66-28.87-52.22-52.22-83-73-13.18-8.88-13.07-12.94.42-20.7C1318,218.77,1353,186,1378.46,143.35c25.12-42.06,34.32-87.9,32.67-136.42-.2-6.08-1.8-7.92-7.94-7.89-51.66.3-103.31.29-155,.35-53,.07-106,.21-159,.08-6,0-8.36,1.73-8,7.94.91,13.77.54,27.66,2.12,41.34a243.13,243.13,0,0,0,42.13,111.86c24.84,36,58.12,62.49,95.18,84.73,9.36,5.62,9.36,9.71.75,16.21-18.33,13.84-37.28,27-54.45,42.18-33.83,29.9-59.62,65.7-74.7,108.76-11.19,32-11.21,65-10.65,98.2A16.15,16.15,0,0,0,1082.55,513.77Zm164,56.1v0c60.81,0,121.62-.07,182.43.1,6.14,0,8-2,7.4-8.87a169.64,169.64,0,0,1,.21-26.86c.53-6.89-1.42-8.79-8-8.78q-108.21.27-216.41,0-73-.09-145.94-.32c-8.49,0-8.51,0-8.43,8.64.08,9.5.54,19,.19,28.48-.21,5.91,1.7,7.73,7.67,7.71C1125.93,569.8,1186.24,569.87,1246.55,569.87ZM1434.27-55.29h-6.11l-47,0q-158,0-315.93-.09c-5.82,0-7.58,1.86-7.28,7.46a274.84,274.84,0,0,1,.47,28c-.32,6.61,2.12,8,8.28,8q177.45-.15,354.9.08c12,0,12.2,0,12.59-11.78C1434.54-33.88,1434.27-44.16,1434.27-55.29Z" transform="translate(-1046.32 66.63)"/><path class="cls-1" d="M1246.55,569.87c-60.31,0-120.62-.07-180.92.12-6,0-7.88-1.8-7.67-7.71.35-9.48-.11-19-.19-28.48-.08-8.63-.06-8.66,8.43-8.64q73,.15,145.94.32,108.21.13,216.41,0c6.6,0,8.55,1.88,8,8.7a174.12,174.12,0,0,0-.21,27c.55,6.8-1.29,8.81-7.41,8.79-60.81-.17-121.62-.1-182.43-.1Z" transform="translate(-1046.32 66.63)"/><path class="cls-1" d="M1434.27-55.29c0,11.13.27,21.41-.07,31.66-.39,11.8-.63,11.79-12.59,11.78q-177.45-.11-354.9-.08c-6.16,0-8.6-1.38-8.28-8a274.84,274.84,0,0,0-.47-28c-.3-5.6,1.46-7.47,7.28-7.46q158,.23,315.93.09l47,0Z" transform="translate(-1046.32 66.63)"/><path class="cls-1" d="M1374.53,114.52c-17.44,40.6-45.56,72.49-81.15,98-11.2,8-23.12,15.12-35,22.1-4.54,2.67-6.66,5.42-6.62,10.88.21,26.48-.18,84.12-.12,86.45.09,3.67-1.23,6.51-5.2,6.46-4.22-.06-5.34-3.14-5.32-6.94.18-27.65.08-55.3.6-83,.14-7.19-1.94-11.4-8.46-14.92-29.21-15.78-55.84-35.16-77.88-60.18-17.95-20.37-33.12-42.58-41-69-2.16-7.25-2-7.54,5.74-7.54,84,0,175.23-.07,259.19-.08C1381.59,96.8,1376.79,109.26,1374.53,114.52Zm-246.83-6.75c.84,2.62,1.24,4.37,1.94,6,9.31,21.65,22.57,40.66,38.54,57.91,21.68,23.43,48.14,40.35,75.62,55.86,1.64.93,5,.39,6.76-.7,12.65-7.69,25.45-15.21,37.56-23.71,31.21-21.93,55.94-49.62,72.54-84.21,1.62-3.37,2.89-6.9,4.65-11.15Z" transform="translate(-1046.32 66.63)"/><path class="cls-1" d="M1246.2,498.57q-71.21,0-142.4,0c-3.39,0-7.89.81-8-4.31-.06-4.82,3.7-6.56,8-5.94,8.92,1.28,15.65-2.27,22.62-7.59,32.82-25.06,66-49.61,99.07-74.35,13.25-9.91,29.19-10,42.48,0,34.34,25.81,68.73,51.55,102.8,77.71,6.37,4.89,13,2.79,19.53,3.26,5.47.4,8.43,4.3,5.51,8.51-1.17,1.68-4.45,2.67-6.77,2.68Q1317.64,498.7,1246.2,498.57Zm-111.84-10.8h223.15c-3.18-2.57-5-4.13-6.94-5.59q-42.22-32-84.48-64c-15.28-11.57-23.1-11.4-38.49.1-29.36,21.93-58.86,43.67-88.3,65.5C1138.05,484.75,1136.86,485.77,1134.36,487.77Z" transform="translate(-1046.32 66.63)"/><path class="cls-1" d="M1127.7,107.77h237.61c-1.76,4.25-3,7.78-4.65,11.15-16.6,34.59-41.33,62.28-72.54,84.21-12.11,8.5-24.91,16-37.56,23.71-1.79,1.09-5.12,1.63-6.76.7-27.48-15.51-53.94-32.43-75.62-55.86-16-17.25-29.23-36.26-38.54-57.91C1128.94,112.14,1128.54,110.39,1127.7,107.77Z" transform="translate(-1046.32 66.63)"/><path class="cls-1" d="M1134.36,487.77c2.5-2,3.69-3,4.94-3.95,29.44-21.83,58.94-43.57,88.3-65.5,15.39-11.5,23.21-11.67,38.49-.1q42.24,32,84.48,64c1.92,1.46,3.76,3,6.94,5.59Z" transform="translate(-1046.32 66.63)"/></svg>