<svg id="Layer_1" data-name="Layer 1" xmlns="http://www.w3.org/2000/svg" xmlns:xlink="http://www.w3.org/1999/xlink" viewBox="0 0 657 657"><defs><style>.cls-1{fill:url(#linear-gradient);}.cls-2{opacity:0.95;}.cls-3{fill:#fff;stroke:#000;stroke-miterlimit:10;}</style><linearGradient id="linear-gradient" x1="-60.12" y1="552.87" x2="717.12" y2="104.13" gradientUnits="userSpaceOnUse"><stop offset="0" stop-color="#3662e3"/><stop offset="0.13" stop-color="#4c77ee"/><stop offset="0.25" stop-color="#5d87f7"/><stop offset="0.5" stop-color="#38858e"/><stop offset="0.75" stop-color="#aaa5b2"/><stop offset="1" stop-color="#ffe45b"/></linearGradient></defs><title>App_logo</title><g id="Layer_2" data-name="Layer 2"><rect class="cls-1" width="657" height="657"/><g id="Layer_1-2" data-name="Layer 1-2" class="cls-2"><path class="cls-3" d="M328.53,127.41q68.43,0,136.86,0A53.75,53.75,0,0,1,479.85,129c9.51,2.6,13.06,13.32,7.33,21.43a38.61,38.61,0,0,1-7.48,7.84,12.37,12.37,0,0,0-4.51,7.85c-2.73,13.09-4.68,26.42-8.56,39.18A200.71,200.71,0,0,1,421,284.75c-9.71,10.4-20.91,19.39-31.14,29.33A49.29,49.29,0,0,0,381.75,325c-1.64,2.87-.75,6.28,1.42,8.79,2.93,3.4,5.88,6.94,9.42,9.64,36.66,28,60.83,64.67,74.44,108.41,3.4,10.94,5.16,22.41,7.3,33.69,1.05,5.54,2.18,10.53,7.2,14.18,3.92,2.84,7.32,6.5,7.92,11.83,1.15,10.27-4.51,16.85-15.45,17.89-2,.19-4,.13-6,.13l-268.46-.35c-4.38,0-8.77.12-13.15-.12a37.46,37.46,0,0,1-8.86-1.4c-10.18-3.14-13.43-15.3-6.37-23.33a10.92,10.92,0,0,1,2.09-2.15c7.23-4.67,9.13-11.93,10.25-19.85,6.31-44.25,25.3-82.57,55.37-115.33,8.42-9.18,18.43-16.91,27.64-25.36a60.4,60.4,0,0,0,6.82-6.94c4.05-5.15,3.76-11.46-1-15.93-5.46-5.14-11.51-9.65-17.07-14.69-32.52-29.43-55.6-64.88-67.36-107.29-2.67-9.6-4-19.56-5.88-29.38a14.49,14.49,0,0,0-5.76-9.67c-5.76-4.27-9.85-9.55-9.14-17.41.4-4.51,2.19-8.27,6.32-9.88a35.3,35.3,0,0,1,12.59-3C233.55,127.35,281,127.41,328.53,127.41Zm-.12,32.6H226.14c-6.39,0-10.31,3.83-10.24,10.27a60,60,0,0,0,.94,10.44c6.77,35.05,23.36,65,48,90.53C274.36,281,284.65,290.05,294,300c8.27,8.69,11.57,19.55,10.53,31.46-1.23,14-8.78,24.47-19.3,33.16-25.22,20.83-45.11,45.76-58.21,75.88-6.32,14.57-10.91,29.61-11.28,45.64-.17,7.28,3.43,10.84,10.81,10.84q102.06,0,204.12-.05c6.3,0,9.52-2.85,10.29-9a26.11,26.11,0,0,0,0-6.37,150.77,150.77,0,0,0-14.43-48.34,204.49,204.49,0,0,0-55.41-69.25c-22.47-18.27-26.2-48.48-2.77-69.33,8.12-7.22,15.84-14.95,23.47-22.7,16.24-16.5,29.25-35.27,38.16-56.66C436,201.1,440.65,186.6,440.77,171c.06-7.83-3.1-11-10.86-11Z"/><path class="cls-3" d="M256.26,230.34H399.78a28.86,28.86,0,0,1-7.52,15.71c-10.42,11.28-20.58,23-32.18,33-19,16.39-26.8,36.72-25.87,61.25.75,18.88,5,36.72,17.06,51.49,7.23,8.82,16.13,16.34,24.67,24,15.44,13.9,30.16,28.32,38.61,47.8,2,4.58,3.5,9.37,5.08,14.1a30.39,30.39,0,0,1,.75,5,27.32,27.32,0,0,1-3.23.47Q329.55,483,242,482.8c-.63,0-1.26-.09-1.88-.06-3.13.12-4.07-1.51-3.28-4.28.92-3.24,1.85-6.49,3-9.64,6.92-19.19,19.87-34,34.69-47.38,6.12-5.53,12.63-10.65,18.94-16,20-16.89,28.61-38.94,29.48-64.57.47-13.83-1.3-27.23-7.52-39.81-4.51-9.19-11.79-16.06-19.34-22.72-12.59-11.13-24.87-22.56-34.06-36.85C259.9,238.2,258.41,234.53,256.26,230.34Z"/></g></g></svg>