<svg xmlns="http://www.w3.org/2000/svg" xmlns:xlink="http://www.w3.org/1999/xlink" viewBox="0 0 233.72 296.81"><defs><style>.cls-1{fill:url(#linear-gradient);}.cls-2{fill:url(#linear-gradient-2);}.cls-3{fill:url(#linear-gradient-3);}.cls-4{fill:url(#linear-gradient-4);}</style><linearGradient id="linear-gradient" x1="-30.86" y1="233.62" x2="264.58" y2="63.05" gradientUnits="userSpaceOnUse"><stop offset="0" stop-color="#3662e3"/><stop offset="0.13" stop-color="#4c77ee"/><stop offset="0.25" stop-color="#5d87f7"/><stop offset="0.5" stop-color="#38858e"/><stop offset="0.75" stop-color="#aaa5b2"/><stop offset="1" stop-color="#ffe45b"/></linearGradient><linearGradient id="linear-gradient-2" x1="-31.26" y1="233.85" x2="264.99" y2="62.81" xlink:href="#linear-gradient"/><linearGradient id="linear-gradient-3" x1="37.75" y1="205.21" x2="190.81" y2="116.84" xlink:href="#linear-gradient"/><linearGradient id="linear-gradient-4" x1="37.18" y1="205.54" x2="191.36" y2="116.53" xlink:href="#linear-gradient"/></defs><title>hourglass_logo</title><g id="Layer_2" data-name="Layer 2"><g id="Layer_1-2" data-name="Layer 1"><path class="cls-1" d="M222.9,273.21c-2.49-25.69-6.7-65.56-22.93-85.92-9.48-12.49-23.62-22.36-33.71-32.33-8.29-8.94.5-13.41,8.67-20.25,8.92-6.9,17.76-14.48,25.44-24.39,16.09-20.77,21.15-60.51,22.2-86.57,7.39-1.1,12-7,10.34-14.87-.79-3.5-4.58-7.19-9-8.16a11.16,11.16,0,0,0-2.49-.25H12.27A11.59,11.59,0,0,0,4,3.87c-6.9,6.73-2.57,18.81,7,19.76C11.54,42,15.31,67.48,20,83.9c5.43,21.31,22.11,38.6,38.69,51,8.19,6.83,17,11.32,8.67,20.26-10.1,10-24.22,19.82-33.71,32.32-15.94,20.25-21,60-22.37,85.65C1.35,273.74-3.25,286.35,4,293a12.07,12.07,0,0,0,8.32,3.33H221.2a11.58,11.58,0,0,0,8.23-3.41C236.16,286.5,232.2,274.35,222.9,273.21Zm-23.84-.12c-41.06-.07-123.69.07-164.71,0,.17-6.4.73-11.41,2.26-22.86,2.7-17.87,6-35.84,14.94-48.22A108.11,108.11,0,0,1,62,190.81c8.43-8.07,18.33-14.56,25.15-23.4,8.64-10,8.79-27.78,0-37.64-7-8.74-16.49-14.14-24.92-22C48,96,40.54,79.11,37.26,59.36a200.88,200.88,0,0,1-3.13-35.63H199.29c.11,26.14-4.83,66-28.15,83.93-8.42,7.81-17.88,13.22-24.92,22-8.76,9.87-8.6,27.61,0,37.64,10.22,12.67,25.3,21.05,35.56,34.57C193.89,218.15,197.88,253,199.06,273.09Z"/><path class="cls-2" d="M221.21,296.81H12.36a12.48,12.48,0,0,1-8.65-3.46,11.57,11.57,0,0,1-3-12.58,11.89,11.89,0,0,1,10.1-8.11c1.3-23.12,5.95-64.56,22.44-85.5,6.19-8.15,14.25-15.1,22-21.83,4.21-3.63,8.18-7.06,11.72-10.54,2.29-2.48,3.34-4.72,3.17-6.81-.28-3.62-4.09-6.62-8.51-10.1-1.08-.85-2.2-1.73-3.31-2.66C43.85,124.39,25.31,106.71,19.53,84c-4.66-16.38-8.4-41.53-8.91-60A12,12,0,0,1,.91,16,11.76,11.76,0,0,1,3.72,3.54,12,12,0,0,1,12.26,0H221.37A12.66,12.66,0,0,1,224,.27c4.48,1,8.53,4.63,9.41,8.51A12.82,12.82,0,0,1,231.61,19,12.89,12.89,0,0,1,223,24.14c-.77,18.65-4.49,63.5-22.29,86.46-8.06,10.42-17.42,18.22-25.51,24.48-1.11.93-2.25,1.82-3.35,2.69-4.39,3.47-8.19,6.46-8.47,10.06-.16,2.09.89,4.32,3.2,6.82,3.52,3.47,7.5,6.91,11.72,10.55,7.79,6.72,15.84,13.67,22,21.81,16.6,20.82,20.77,62.91,23,85.79a12.17,12.17,0,0,1,6.42,20.47A12,12,0,0,1,221.21,296.81ZM12.26.93A11.12,11.12,0,0,0,4.37,4.2,10.85,10.85,0,0,0,1.79,15.69a11,11,0,0,0,9.34,7.48l.4,0v.41C12,42,15.75,67.33,20.43,83.77,23.59,96.16,32.82,115,58.94,134.49c1.13.93,2.24,1.81,3.32,2.66,4.59,3.62,8.55,6.74,8.86,10.75.19,2.37-.94,4.84-3.44,7.53-3.57,3.53-7.55,7-11.77,10.61-7.76,6.69-15.78,13.61-21.91,21.69-16.43,20.87-21,62.45-22.28,85.38l0,.41-.41,0a11,11,0,0,0-9.69,7.53,10.67,10.67,0,0,0,2.75,11.6,11.54,11.54,0,0,0,8,3.2H221.21a11.12,11.12,0,0,0,7.89-3.27,11.23,11.23,0,0,0-6.26-18.94l-.37,0,0-.37c-2.21-22.7-6.31-64.95-22.83-85.68-6.13-8.07-14.15-15-21.9-21.68-4.23-3.65-8.22-7.09-11.78-10.61-2.51-2.7-3.64-5.16-3.45-7.53.31-4,4.25-7.12,8.81-10.72,1.1-.86,2.23-1.75,3.34-2.69,8.07-6.23,17.37-14,25.37-24.32,17.75-22.9,21.37-68,22.1-86.3l0-.39.38-.05a12.13,12.13,0,0,0,8.35-4.83A11.92,11.92,0,0,0,232.46,9c-.79-3.49-4.61-6.91-8.7-7.8a11.89,11.89,0,0,0-2.39-.25H12.26ZM74,273.56c-15.08,0-28.81,0-39.6,0h-.48v-.47c.17-6.38.72-11.32,2.27-22.91,2.78-18.46,6-36,15-48.44a109,109,0,0,1,10.47-11.23c3.07-2.95,6.39-5.72,9.59-8.4,5.76-4.82,11.21-9.37,15.51-15,4.08-4.73,6.42-11.51,6.44-18.6s-2.3-13.85-6.39-18.45c-4.33-5.39-9.5-9.43-15-13.71-3.29-2.57-6.69-5.23-9.92-8.22-13.29-11.09-21.51-27-25.1-48.71a200.86,200.86,0,0,1-3.14-35.72v-.46H199.75v.46c.08,18.75-2.52,64.49-28.32,84.31-3.19,3-6.59,5.61-9.88,8.18-5.47,4.29-10.64,8.33-15,13.7-4.11,4.62-6.44,11.34-6.41,18.47s2.37,13.86,6.43,18.58c4.86,6,10.95,11.17,16.83,16.16,6.56,5.57,13.35,11.32,18.75,18.43,5.38,7.27,9.68,18.84,12.79,34.39a278,278,0,0,1,4.54,37.12l0,.49h-.49c-19.31,0-47.27,0-76.87,0Zm-39.12-1c21.73,0,55.09,0,87.36,0,29.35,0,57.08,0,76.37,0-2.78-46.5-12.89-64.8-17.12-70.51-5.33-7-12.07-12.75-18.6-18.28-5.92-5-12-10.2-16.94-16.28-8.91-10.35-8.93-28.22,0-38.24,4.37-5.44,9.58-9.51,15.1-13.83,3.27-2.56,6.66-5.2,9.85-8.16,25.29-19.43,28-64.24,28-83.13H34.59a201.23,201.23,0,0,0,3.13,35.09c3.56,21.46,11.67,37.21,24.81,48.17,3.21,3,6.6,5.63,9.87,8.19C77.91,120,83.12,124,87.51,129.48c4.22,4.75,6.64,11.7,6.61,19.05s-2.45,14.31-6.65,19.19c-4.35,5.64-10.09,10.43-15.63,15.07-3.2,2.67-6.49,5.43-9.55,8.36a106.91,106.91,0,0,0-10.37,11.13c-8.87,12.2-12.08,29.67-14.85,48C35.56,261.54,35,266.5,34.83,272.6Z"/><path class="cls-3" d="M66.07,254.27C68.59,216.84,80,204.16,90.68,194.1s20.83-17.76,20.83-45.69c0-23.13-8.58-29.19-17.17-37.69S77.17,91.28,77.17,58.38h79.88c0,32.79-8.65,43.25-17.31,51.41s-17.3,14-17.3,37.6c0,28.15,11.31,37.45,22.62,48.45s22.62,23.47,22.62,58.43Z"/><path class="cls-4" d="M168.14,254.74H65.58l0-.5c2.47-36.73,13.11-49.57,24.75-60.48l1.83-1.71c10.12-9.39,18.86-17.51,18.86-43.64,0-20.9-7.18-27.82-14.77-35.15-.75-.73-1.51-1.46-2.27-2.21-8.75-8.67-17.3-19.88-17.3-52.67v-.47h80.8v.47c0,32.57-8.62,43.42-17.45,51.75l-2.13,2c-7.73,7.11-15,13.83-15,35.28,0,26.43,10,36.1,20.65,46.34l1.83,1.78c12.46,12.11,22.76,24.9,22.76,58.76Zm-101.57-.93H167.21c-.09-33.16-10.23-45.73-22.48-57.63l-1.83-1.78C132.14,184,122,174.21,122,147.39c0-21.86,7.45-28.71,15.33-36,.7-.65,1.41-1.3,2.12-2,8.64-8.14,17.08-18.77,17.16-50.61H77.64c.08,32.08,8.45,43.06,17,51.55.75.75,1.5,1.48,2.25,2.2,7.74,7.47,15.06,14.53,15.06,35.82,0,26.54-9.31,35.18-19.16,44.32L91,194.44C79.55,205.17,69.08,217.8,66.57,253.81Z"/></g></g></svg>