<svg xmlns="http://www.w3.org/2000/svg" xmlns:xlink="http://www.w3.org/1999/xlink" viewBox="0 0 429.38 534.86"><defs><style>.cls-1{fill:url(#New_Gradient_Swatch_24);}.cls-2{fill:url(#New_Gradient_Swatch_24-2);}</style><linearGradient id="New_Gradient_Swatch_24" x1="-55.18" y1="423.1" x2="485.15" y2="111.14" gradientUnits="userSpaceOnUse"><stop offset="0" stop-color="#3662e3"/><stop offset="0.13" stop-color="#4c77ee"/><stop offset="0.25" stop-color="#5d87f7"/><stop offset="0.5" stop-color="#38858e"/><stop offset="0.75" stop-color="#aaa5b2"/><stop offset="1" stop-color="#ffe45b"/></linearGradient><linearGradient id="New_Gradient_Swatch_24-2" x1="54.61" y1="404.67" x2="361.72" y2="227.36" xlink:href="#New_Gradient_Swatch_24"/></defs><title>Asset 7</title><g id="Layer_2" data-name="Layer 2"><g id="Layer_1-2" data-name="Layer 1"><g id="Layer_2-2" data-name="Layer 2"><g id="Layer_1-2-2" data-name="Layer 1-2"><path class="cls-1" d="M214.74,0q91,0,182,.07c6.43,0,13.09.28,19.23,2,12.64,3.46,17.36,17.72,9.75,28.51a52,52,0,0,1-10,10.42c-3.56,2.83-5.16,6.22-6,10.44-3.63,17.41-6.23,35.14-11.38,52.1a267.15,267.15,0,0,1-60.66,105.7c-12.91,13.83-27.8,25.79-41.41,39a65.25,65.25,0,0,0-10.81,14.56c-2.18,3.82-1,8.36,1.89,11.7,3.9,4.52,7.82,9.22,12.52,12.81,48.76,37.27,80.9,86,99,144.18,4.52,14.54,6.86,29.79,9.7,44.8,1.4,7.36,2.9,14,9.58,18.85,5.22,3.78,9.74,8.65,10.53,15.73,1.53,13.66-6,22.42-20.54,23.8-2.65.25-5.33.17-8,.17l-357-.47c-5.83,0-11.67.16-17.49-.16a49.39,49.39,0,0,1-11.78-1.86C.37,528.19-3.94,512,5.44,501.34a14.22,14.22,0,0,1,2.78-2.86c9.62-6.21,12.14-15.87,13.64-26.4,8.38-58.85,33.64-109.8,73.63-153.37,11.2-12.21,24.5-22.49,36.76-33.73a81.52,81.52,0,0,0,9.07-9.23c5.38-6.84,5-15.23-1.3-21.18-7.26-6.83-15.3-12.83-22.7-19.53C74.08,195.9,43.38,148.76,27.74,92.35c-3.54-12.76-5.37-26-7.81-39.06-1-5.31-3.15-9.53-7.66-12.87C4.61,34.75-.83,27.73.11,17.27c.53-6,2.91-11,8.4-13.13C13.81,2,19.65.22,25.26.2,88.42-.07,151.58,0,214.74,0Zm-.17,43.35h-136C70.08,43.36,64.86,48.46,65,57A77.8,77.8,0,0,0,66.21,70.9c9,46.62,31.06,86.44,63.88,120.4,12.6,13,26.29,25,38.78,38.19,11,11.55,15.38,26,14,41.84-1.63,18.62-11.68,32.54-25.66,44.09-33.54,27.71-60,60.86-77.41,100.92-8.41,19.37-14.52,39.37-15,60.69-.23,9.68,4.55,14.41,14.37,14.41q135.72,0,271.45-.06c8.38,0,12.66-3.79,13.68-12a35.29,35.29,0,0,0,.06-8.47,200.8,200.8,0,0,0-19.2-64.28,272,272,0,0,0-73.68-92.1c-29.88-24.29-34.84-64.47-3.69-92.19,10.81-9.61,21.07-19.88,31.22-30.19,21.59-21.94,38.89-46.9,50.75-75.35C357.6,98,363.84,78.72,364,58c.07-10.42-4.13-14.63-14.45-14.64Z"/><path class="cls-2" d="M118.63,136.89H309.49a38.46,38.46,0,0,1-10,20.89c-13.86,15-27.37,30.62-42.8,43.93-25.27,21.8-35.64,48.83-34.4,81.45,1,25.11,6.62,48.84,22.69,68.47,9.61,11.74,21.45,21.73,32.8,31.95,20.53,18.49,40.11,37.66,51.35,63.57,2.63,6.09,4.65,12.45,6.75,18.75.66,2,.66,4.16,1,6.62a33,33,0,0,1-4.3.62q-116.49-.22-232.95-.52c-.83,0-1.67-.11-2.5-.08-4.15.16-5.41-2-4.35-5.68,1.22-4.31,2.46-8.63,4-12.83,9.2-25.52,26.42-45.24,46.13-63,8.14-7.36,16.8-14.17,25.19-21.26,26.57-22.45,38.05-51.78,39.2-85.86.62-18.4-1.73-36.22-10-52.94-6-12.23-15.68-21.36-25.72-30.22-16.74-14.8-33.07-30-45.3-49C123.47,147.35,121.48,142.46,118.63,136.89Z"/></g></g></g></g></svg>