<svg xmlns="http://www.w3.org/2000/svg" viewBox="0 0 597.29 942.14"><defs><style>.cls-1{fill:#36c;stroke:#36c;stroke-miterlimit:10;}.cls-2{fill:#f6f6f6;}</style></defs><title>Asset 2</title><g id="Layer_2" data-name="Layer 2"><g id="Layer_1-2" data-name="Layer 1"><path class="cls-1" d="M239.08,468.51c-6.17-5.52-13.24-10.41-19.66-15.68l-37.41-31a935.93,935.93,0,0,1-76.34-71.59C58.24,301.29,13.89,237.54,3.1,168.78-.76,144.49.78,119,.91,94.49.78,63.25.78,32.15,1,.92,29.45.14,58.11.66,86.64.79L236.38,1,464.27.92c43.83,0,87.79-.65,131.62.25L596,92.43c0,18.51.78,37.27-.64,55.65C586.89,265.43,490.62,357,406.56,428.67c-16.45,14-33.55,27-49.87,41,7.84,6.94,16.32,13.24,24.42,19.92,27.76,23.14,56,46.28,81.62,72C524.94,623.78,585.09,696.14,595,787c2.31,21.33,1.67,42.93,1.8,64.39V941c-26.61.9-53.47.51-80.08.51l-141.13.13L1.17,941.51C.53,919,1,896.4,1,873.9,1,850.38.53,826.6,1.3,803,4.9,699.49,83,606.17,155.92,539.85c14.27-13,28.66-25.83,43.45-38.05C212.48,490.88,226.36,480.34,239.08,468.51ZM28,28l.26,77.24c.13,18-.26,36.51,2.06,54.5,8.86,72.36,57.84,134.06,108,183.93,29.31,29.18,60.41,55.78,92.67,81.49C245.64,436.9,261.19,448,275.46,460c2.57,2.19,6.55,5.53,7.07,8.87.25,1.54-1.93,3.21-3,4.24-8.36,8.23-18.9,15-28,22.37C237.28,507,223.4,518.9,209.39,530.6,127.26,599.75,35,690.88,29.7,805.14c-1.67,36.25-1.15,73.52-.64,109.77l402.31-.13c17.6,0,131.48,1.28,137.27-1l-.13-72.11c0-18.38.51-36.89-1.67-55.14-8.74-74.8-58.61-140.35-110.41-192-27.25-27.12-55.53-52.19-85.22-76.61-18-14.78-43.83-33-59.12-49.61l.77-.77c8.35-8.36,18.25-15.56,27.5-22.88,15.43-12,30.6-24,45.76-36.38,82.39-67.73,181.62-161.82,182.52-276.6.25-34.57-.39-69,.13-103.59Z"/><path class="cls-1" d="M28.8,913.62c-.38-36.25-1-73.39.65-109.64,5.39-114.13,97.68-205.13,179.68-274.16,14-11.69,27.9-23.65,42.16-35.08,9.26-7.33,19.67-14.14,28-22.37,1-1,3.22-2.7,3-4.24-.52-3.47-4.5-6.81-7.07-8.87-14.4-12.08-29.82-23.14-44.47-34.83-32.26-25.84-63.37-52.31-92.67-81.36-50-49.74-99-111.44-108-183.67C27.9,141.53,28.16,123,28,105l-.26-77.12H568.12c-.51,34.57.13,68.89-.13,103.47C567.1,246,467.87,339.73,385.48,407.59,370.31,419.8,355,432,339.72,444c-9.25,7.32-19.15,14.52-27.5,22.87l-.77.78c15.29,16.58,41.13,34.83,59.12,49.48,29.82,24.42,58,49.36,85.22,76.48,51.79,51.54,101.79,117.09,110.41,191.77,2.18,18.25,1.67,36.76,1.67,55l.12,72c-5.78,2.31-119.66,1-137.27,1ZM77,86.52c-.25,28-1.15,56.17,4.63,83.8,14.78,69.28,77.76,141.64,126.22,191,16.71,17.09,34.7,32.9,52.7,48.58,11.95,10.54,25.06,23.27,39.2,30.85,79.56-65.93,186.88-164.39,212.85-268,6.3-28.66,5.27-55.91,4.62-84.83C462.86,151.68,410.8,217.36,356.69,281.37L320.44,324.3c-7.32,8.74-14.39,17.87-22.36,26-26.48-30.08-51.67-60.93-77.25-91.52l-80-95.24C132.14,152.58,82.79,90.12,77,86.52ZM297.05,624.68,152.45,794.6l-51,59.38c-8.35,9.9-17.35,19.8-24.93,30.34q114.14,1,228.4.38,108.93.59,217.86-.13C465.3,822.23,411.44,756.3,356.56,691.65c-17.74-20.95-35-42.68-53.47-62.86C301.16,626.61,299.75,625.32,297.05,624.68Z"/><path class="cls-2" d="M299.62,441.27c-14.14-7.59-27.12-20.31-39.2-30.85-18-15.68-35.86-31.62-52.7-48.72C159.39,312.48,96.41,239.86,81.5,170.45c-5.91-27.64-4.88-55.78-4.63-83.93,5.79,3.6,55.14,66.19,64,76.86l80,95.37c25.58,30.72,50.9,61.7,77.25,91.64,8-8.09,15-17.22,22.36-26l36.12-43.06c54.11-64.14,106.17-129.82,160.54-193.7.64,29.05,1.67,56.43-4.63,85C486.63,276.62,379.18,375.2,299.62,441.27Z"/><path class="cls-2" d="M76.49,885.6c7.45-10.54,16.45-20.44,24.93-30.33l51-59.51,144.6-170.18c2.83.64,4.11,1.93,6,4,18.51,20.17,35.73,42.15,53.47,63,55,64.65,108.87,130.71,166.19,193.18q-108.93.59-217.86.13Q190.76,886.63,76.49,885.6Z"/></g></g></svg>